<?xml version="1.0" standalone="no"?>
<!DOCTYPE svg PUBLIC "-//W3C//DTD SVG 20010904//EN"
 "http://www.w3.org/TR/2001/REC-SVG-20010904/DTD/svg10.dtd">
<svg version="1.0" xmlns="http://www.w3.org/2000/svg"
 width="220.000000pt" height="220.000000pt" viewBox="0 0 220.000000 220.000000"
 preserveAspectRatio="xMidYMid meet">

<g transform="translate(0.000000,220.000000) scale(0.100000,-0.100000)"
fill="#000000" stroke="none">
<path d="M1004 1834 c-101 -36 -176 -141 -180 -252 -3 -61 -5 -66 -44 -99
-105 -90 -115 -236 -24 -334 15 -15 87 -182 178 -410 85 -211 159 -384 166
-384 14 0 326 773 316 783 -11 11 -19 -8 -167 -375 -78 -194 -145 -353 -149
-353 -4 0 -72 160 -151 357 -93 233 -152 367 -171 388 -87 100 -74 246 29 318
l43 31 0 67 c0 54 5 77 28 120 61 117 214 170 325 112 32 -16 48 -10 26 11
-39 36 -151 46 -225 20z"/>
</g>
</svg>
